<?xml version="1.0" standalone="no"?><!DOCTYPE svg PUBLIC "-//W3C//DTD SVG 1.1//EN" "http://www.w3.org/Graphics/SVG/1.1/DTD/svg11.dtd"><svg t="1693487072129" class="icon" viewBox="0 0 1024 1024" version="1.1" xmlns="http://www.w3.org/2000/svg" p-id="11638" xmlns:xlink="http://www.w3.org/1999/xlink" width="200" height="200"><path d="M1024 512c0-282.763636-229.236364-512-512-512C229.236364 0 0 229.236364 0 512c0 282.763636 229.236364 512 512 512C794.763636 1024 1024 794.763636 1024 512zM791.272727 418.909091c51.386182 0 93.090909 41.704727 93.090909 93.090909s-41.704727 93.090909-93.090909 93.090909c-51.432727 0-93.090909-41.658182-93.090909-93.090909S739.84 418.909091 791.272727 418.909091zM232.727273 605.090909c-51.432727 0-93.090909-41.658182-93.090909-93.090909s41.658182-93.090909 93.090909-93.090909c51.386182 0 93.090909 41.704727 93.090909 93.090909S284.113455 605.090909 232.727273 605.090909zM418.909091 512c0-51.432727 41.658182-93.090909 93.090909-93.090909 51.386182 0 93.090909 41.704727 93.090909 93.090909s-41.704727 93.090909-93.090909 93.090909C460.567273 605.090909 418.909091 563.432727 418.909091 512z" fill="#1296db" p-id="11639"></path></svg>